<?xml version="1.0" encoding="iso-8859-1"?>
<!-- Generator: Adobe Illustrator 19.1.0, SVG Export Plug-In . SVG Version: 6.00 Build 0)  -->
<svg version="1.1" id="&#x30EC;&#x30A4;&#x30E4;&#x30FC;_1"
	 xmlns="http://www.w3.org/2000/svg" xmlns:xlink="http://www.w3.org/1999/xlink" x="0px" y="0px" viewBox="0 0 1024 1024"
	 style="enable-background:new 0 0 1024 1024;" xml:space="preserve">
<g id="logo" transform="translate(51.000000, 2.000000)">
	<path id="Rectangle-10-Copy-19" style="fill:#314C6D;" d="M948.619,550.157h-97.524v20.078H960.81H973v-40.157h-24.381V550.157z
		 M948.619,489.922h-97.524l0,0v-20.078h-24.381v100.392h24.381V510H960.81H973v-50.196v-10.039H826.714v20.078h121.905V489.922
		L948.619,489.922z"/>
	<path id="Rectangle-10-Copy-19_1_" style="fill:#314C6D;" d="M777.952,489.922h-97.524l0,0v-40.157h-24.381v100.392h24.381V510
		h109.714h12.19v-50.196v-10.039H680.429v20.078h97.524V489.922L777.952,489.922z M656.048,550.157h121.905v20.078H656.048V550.157z
		 M777.952,530.078h24.381v40.157h-24.381V530.078z"/>
	<path id="Rectangle-10-Copy-17" style="fill:#314C6D;" d="M534.143,469.843h97.524v-20.078H485.381v20.078h24.381v80.314h-24.381
		v20.078h97.524v-20.078h-48.762V469.843z M607.286,469.843h24.381v20.078h-24.381V469.843z"/>
	<path id="Rectangle-10-Copy-9" style="fill:#314C6D;" d="M412.238,550.157h-24.381v20.078H461v-20.078h-24.381V449.765h-24.381
		V550.157z M314.714,550.157h-24.381v20.078h73.143v-20.078h-24.381V389.529h-24.381V550.157L314.714,550.157z M290.333,389.529
		h24.381v20.078h-24.381V389.529z M339.095,449.765h73.143v20.078h-73.143V449.765z"/>
	<path id="Rectangle-10-Copy-2" style="fill:#314C6D;" d="M192.81,429.686h73.143v-20.078H95.286v20.078h73.143v120.471h24.381
		V429.686z M95.286,429.686h24.381v40.157H95.286V429.686z M241.571,429.686h24.381v40.157h-24.381V429.686z M119.667,550.157
		h121.905v20.078H119.667V550.157z"/>
	<path id="Rectangle-10" style="fill:#314C6D;" d="M-51,449.765h73.143v20.078H-51V449.765z M22.143,389.529h24.381v20.078H22.143
		V389.529z M22.143,449.765h24.381v160.627H22.143V449.765z M-26.619,610.392h73.143v20.078h-73.143V610.392z"/>
</g>
</svg>
